<svg xmlns="http://www.w3.org/2000/svg" width="38.755" height="37.799" viewBox="0 0 38.755 37.799">
  <path id="Octicons-mark-github" d="M19.378,0a19.379,19.379,0,0,0-6.128,37.762c.969.17,1.332-.412,1.332-.92,0-.46-.024-1.986-.024-3.609-4.869.9-6.128-1.187-6.516-2.277a7.046,7.046,0,0,0-1.986-2.737c-.678-.363-1.647-1.26-.024-1.284,1.526-.024,2.616,1.4,2.979,1.986a4.142,4.142,0,0,0,5.644,1.6,4.076,4.076,0,0,1,1.235-2.592c-4.312-.484-8.817-2.156-8.817-9.568a7.541,7.541,0,0,1,1.986-5.208,6.963,6.963,0,0,1,.194-5.135S10.876,7.509,14.582,10a18.269,18.269,0,0,1,9.689,0C27.977,7.485,29.6,8.018,29.6,8.018a6.963,6.963,0,0,1,.194,5.135,7.5,7.5,0,0,1,1.986,5.208c0,7.436-4.53,9.083-8.841,9.568a4.589,4.589,0,0,1,1.308,3.585c0,2.592-.024,4.675-.024,5.329,0,.509.363,1.114,1.332.92A19.388,19.388,0,0,0,19.378,0Z" fill="#1b1f23" fill-rule="evenodd"/>
</svg>
