<svg xmlns="http://www.w3.org/2000/svg" width="34.655" height="26.28" viewBox="0 0 34.655 26.28">
  <g id="lightmode" transform="translate(0 -30.559)">
    <path id="Path_3" data-name="Path 3" d="M121.6,36.655a.77.77,0,0,1-.77-.77V31.329a.77.77,0,1,1,1.54,0v4.556A.77.77,0,0,1,121.6,36.655Z" transform="translate(-104.273)" fill="#fff"/>
    <path id="Path_4" data-name="Path 4" d="M5.326,152.929H.77a.77.77,0,0,1,0-1.54H5.326a.77.77,0,0,1,0,1.54Z" transform="translate(0 -104.273)" fill="#fff"/>
    <path id="Path_5" data-name="Path 5" d="M213.743,152.929h-4.555a.77.77,0,0,1,0-1.54h4.555a.77.77,0,0,1,0,1.54Z" transform="translate(-179.858 -104.273)" fill="#fff"/>
    <path id="Path_6" data-name="Path 6" d="M183.533,70.71a.77.77,0,0,1-.544-1.315l3.221-3.221a.77.77,0,0,1,1.089,1.089l-3.221,3.221A.767.767,0,0,1,183.533,70.71Z" transform="translate(-157.719 -30.54)" fill="#fff"/>
    <path id="Path_7" data-name="Path 7" d="M39.381,70.71a.766.766,0,0,1-.544-.226l-3.221-3.221A.77.77,0,0,1,36.7,66.174L39.926,69.4a.77.77,0,0,1-.544,1.315Z" transform="translate(-30.54 -30.54)" fill="#fff"/>
    <path id="Path_8" data-name="Path 8" d="M82.545,58.642a.771.771,0,0,1-.712-.476l-.879-2.123a.77.77,0,1,1,1.423-.589l.879,2.123a.77.77,0,0,1-.417,1.006A.778.778,0,0,1,82.545,58.642Z" transform="translate(-69.81 -21.074)" fill="#fff"/>
    <path id="Path_9" data-name="Path 9" d="M155.115,58.639a.771.771,0,0,1-.711-1.065l.879-2.123a.77.77,0,0,1,1.423.59l-.879,2.123A.77.77,0,0,1,155.115,58.639Z" transform="translate(-133.195 -21.071)" fill="#fff"/>
    <path id="Path_10" data-name="Path 10" d="M202.518,113.873a.77.77,0,0,1-.3-1.482l2.123-.879a.77.77,0,0,1,.59,1.423l-2.123.879A.771.771,0,0,1,202.518,113.873Z" transform="translate(-174.102 -69.81)" fill="#fff"/>
    <path id="Path_11" data-name="Path 11" d="M27.31,113.869a.764.764,0,0,1-.294-.059l-2.123-.879a.77.77,0,0,1,.589-1.423l2.123.879a.77.77,0,0,1-.295,1.482Z" transform="translate(-21.072 -69.805)" fill="#fff"/>
    <path id="Path_12" data-name="Path 12" d="M74.318,102.581H59.338a.77.77,0,0,1-.663-.378,9.467,9.467,0,1,1,16.305,0A.77.77,0,0,1,74.318,102.581Zm-14.526-1.54H73.864a7.927,7.927,0,1,0-14.073,0Z" transform="translate(-49.5 -49.505)" fill="#fff"/>
    <path id="Path_13" data-name="Path 13" d="M49.488,185.182H22.264a.77.77,0,1,1,0-1.54H49.488a.77.77,0,0,1,0,1.54Z" transform="translate(-18.548 -132.106)" fill="#fff"/>
    <path id="Path_14" data-name="Path 14" d="M69.424,212.641h-19.7a.77.77,0,0,1,0-1.54h19.7a.77.77,0,0,1,0,1.54Z" transform="translate(-42.247 -155.803)" fill="#fff"/>
  </g>
</svg>
