<svg xmlns="http://www.w3.org/2000/svg" width="40.316" height="40.244" viewBox="0 0 40.316 40.244">
  <g id="linkedin-112" transform="translate(0 -0.225)">
    <path id="Path_7" data-name="Path 7" d="M.663,13.587H9.02V40.469H.663ZM4.842.225A4.845,4.845,0,1,1,0,5.071,4.847,4.847,0,0,1,4.842.225" fill="#fff"/>
    <path id="Path_8" data-name="Path 8" d="M89.456,80.537H97.47v3.676h.114a8.778,8.778,0,0,1,7.905-4.342c8.46,0,10.022,5.566,10.022,12.8v14.743H107.16V94.346c0-3.118-.054-7.128-4.342-7.128-4.348,0-5.011,3.4-5.011,6.9v13.3H89.456Z" transform="translate(-75.196 -66.95)" fill="#fff"/>
  </g>
</svg>
